<?xml version="1.0" standalone="no"?>
<!DOCTYPE svg PUBLIC "-//W3C//DTD SVG 20010904//EN"
 "http://www.w3.org/TR/2001/REC-SVG-20010904/DTD/svg10.dtd">
<svg version="1.0" xmlns="http://www.w3.org/2000/svg"
 width="512.000000pt" height="512.000000pt" viewBox="0 0 512.000000 512.000000"
 preserveAspectRatio="xMidYMid meet">
<metadata>
Created by potrace 1.14, written by Peter Selinger 2001-2017
</metadata>
<g transform="translate(0.000000,512.000000) scale(0.100000,-0.100000)"
fill="#000000" stroke="none">
<path d="M0 2560 l0 -2560 2560 0 2560 0 0 2560 0 2560 -2560 0 -2560 0 0
-2560z m1176 1918 c43 -51 137 -160 208 -243 735 -854 734 -852 844 -918 209
-128 491 -120 692 17 90 62 142 118 510 546 177 206 384 446 458 533 l136 157
298 0 298 0 -381 -442 c-210 -244 -458 -533 -553 -642 -426 -496 -475 -543
-669 -640 -340 -169 -718 -142 -1046 75 -93 61 -209 181 -442 454 -209 244
-503 586 -841 978 l-188 217 298 0 298 0 80 -92z m1577 -2105 c209 -40 392
-138 553 -298 39 -38 151 -164 250 -280 167 -195 427 -497 869 -1010 99 -116
184 -216 189 -222 6 -10 -54 -13 -287 -13 l-295 0 -364 422 c-200 233 -418
486 -485 563 -187 217 -260 278 -399 328 -184 66 -356 53 -539 -42 -99 -51
-193 -149 -576 -595 -353 -413 -508 -592 -554 -643 l-30 -34 -293 3 -294 3
199 231 c109 127 306 356 438 510 132 153 298 346 369 429 253 294 316 363
385 419 257 210 553 289 864 229z"/>
</g>
</svg>
